<svg xmlns="http://www.w3.org/2000/svg"><symbol id="Aliexpress" viewBox="0 0 192 70"><g id="Frame">
<g id="Group">
<g id="Group_2">
<g id="Group_3">
<g id="Group_4">
<path id="Vector" fill-rule="evenodd" clip-rule="evenodd" d="M49.237 45.7149V16.7669H66.226V20.3959H52.755V29.2959H64.853V32.9259H52.755V41.9989H67.17V45.6279H49.237V45.7149ZM85.017 45.7149L79.182 38.0249L73.347 45.7149H69.23L77.209 35.4319L68.8 24.8029H73.434L79.182 32.7539L85.017 24.8029H89.564L81.585 35.4319L89.136 45.7149H85.017ZM94.799 42.6039V56.8619H91.281V35.5179C91.281 30.0739 95.399 24.2849 101.835 24.2849C108.355 24.2849 113.246 28.4329 113.246 35.2589C113.246 41.9129 108.27 46.4929 102.607 46.4929C99.861 46.4929 96.172 45.2829 94.799 42.6039ZM109.557 35.2589C109.557 30.5929 106.554 27.8289 101.234 28.0869C98.66 28.1739 94.714 30.0739 95.056 36.7289C95.142 38.8889 97.373 42.9489 102.264 42.9489C106.468 42.9489 109.557 40.5299 109.557 35.2589ZM116.25 45.7149V24.8029H119.768V27.0499C121.484 25.0619 124.143 24.3709 126.975 24.3709V28.1739C126.546 28.0869 122.341 27.5679 119.768 33.0989V45.8019H116.25V45.7149ZM127.919 35.2599C127.919 29.2099 132.209 24.2849 138.129 24.2849C145.509 24.2849 148.254 29.2109 148.254 35.5179V37.2469H131.78C132.037 41.2219 135.555 43.2949 138.816 43.2089C141.218 43.1229 142.849 42.4319 144.566 40.7039L146.882 43.1239C144.737 45.1969 141.991 46.5789 138.645 46.5789C132.381 46.4929 127.919 41.8259 127.919 35.2589V35.2599ZM137.872 27.8289C134.526 27.8289 131.952 30.7649 131.78 33.9639H144.565C144.565 30.8519 142.335 27.8279 137.872 27.8279V27.8289ZM150.057 42.7769L152.63 40.4439C152.545 40.4439 153.918 41.8269 154.09 41.9129C154.69 42.4319 155.29 42.7769 156.063 42.9499C158.293 43.5549 162.326 43.3819 162.67 40.2709C162.841 38.5429 161.554 37.5919 160.096 36.9869C158.208 36.2969 156.148 36.0369 154.261 35.1729C152.115 34.2229 150.744 32.5809 150.744 30.1619C150.744 23.8519 159.666 22.8159 163.699 25.7539C163.871 25.9269 165.844 27.7409 165.759 27.7409L163.184 29.8159C161.898 28.2599 160.696 27.4819 157.951 27.4819C156.578 27.4819 154.69 28.0869 154.347 29.5559C153.832 31.6299 156.148 32.4079 157.693 32.8399C159.753 33.3579 161.983 33.7039 163.785 34.8269C166.274 36.3829 166.875 39.7519 165.93 42.3449C164.9 45.1969 161.811 46.3199 159.066 46.4049C155.806 46.5789 152.974 45.5419 150.657 43.2099C150.485 43.2099 150.057 42.7769 150.057 42.7769ZM168.161 42.7769L170.736 40.4439C170.65 40.4439 172.022 41.8269 172.194 41.9129C172.794 42.4319 173.396 42.7769 174.167 42.9499C176.397 43.5549 180.432 43.3819 180.775 40.2709C180.945 38.5429 179.659 37.5919 178.2 36.9869C176.312 36.2969 174.253 36.0369 172.366 35.1729C170.221 34.2229 168.848 32.5809 168.848 30.1619C168.848 23.8519 177.772 22.8159 181.804 25.7539C181.976 25.9269 183.949 27.7409 183.864 27.7409L181.29 29.8159C180.002 28.2599 178.8 27.4819 176.055 27.4819C174.682 27.4819 172.795 28.0869 172.451 29.5559C171.937 31.6299 174.253 32.4079 175.797 32.8399C177.857 33.3579 180.089 33.7039 181.89 34.8269C184.378 36.3829 184.98 39.7519 184.035 42.3449C183.005 45.1969 179.917 46.3199 177.17 46.4049C173.91 46.5789 171.079 45.5419 168.762 43.2099C168.59 43.2099 168.162 42.7769 168.162 42.7769H168.161ZM184.893 24.8029V22.5559H184.121V22.1239H186.18V22.5559H185.408V24.8029H184.893ZM188.754 24.8029V22.7299L187.982 24.8029H187.81L187.038 22.7299V24.8029H186.609V22.1239H187.296L187.982 23.9399L188.669 22.1239H189.355V24.8029H188.754ZM25.383 45.7149L22.809 38.8019H8.90899L6.33399 45.7149H2.64499L13.8 16.7669H17.832L28.902 45.7149H25.383ZM15.687 20.9149L10.454 35.2599H21.35L15.687 20.9149ZM31.218 45.7149H34.822V16.7679H31.218V45.7149ZM40.227 45.7149H43.831V25.2359H40.227V45.7149ZM47.263 18.5819V18.2359C44.518 18.1499 42.286 15.9029 42.201 13.1379H41.686C41.6 15.9029 39.369 18.1499 36.624 18.2359V18.5819C39.369 18.6679 41.6 20.9149 41.686 23.6799H42.201C42.286 20.9149 44.518 18.6679 47.263 18.5819Z" fill="#222222"/>
</g>
</g>
</g>
</g>
</g>
</symbol><symbol id="allegro" viewBox="0 0 192 70"><g id="Frame">
<g id="Group">
<g id="Group_2">
<g id="Group_3">
<g id="Group_4">
<path id="Vector" fill-rule="evenodd" clip-rule="evenodd" d="M73.223 32.909C73.391 29.156 76.563 26.249 80.305 26.419L80.406 26.424C83.732 26.22 86.593 28.758 86.796 32.092C86.813 32.364 86.811 32.637 86.791 32.909H73.223ZM80.395 20.539C71.415 20.539 67.483 26.577 66.227 31.685C65.882 33.062 65.709 34.477 65.711 35.898C65.663 39.262 66.673 42.556 68.598 45.312C71.514 49.072 75.997 51.273 80.747 51.278C85.595 51.455 88.834 50.631 91.311 49.22C91.806 48.898 92.041 48.297 91.898 47.725V43.805C91.898 43.006 91.417 42.629 90.724 43.111C87.824 44.974 84.385 45.804 80.958 45.465C76.92 45.412 73.556 42.347 73.118 38.322H93.071C93.521 38.322 93.887 37.96 93.894 37.509C94.245 32.037 92.66 20.539 80.395 20.539ZM32.035 45.912H23.267C22.142 45.88 21.056 45.497 20.157 44.817C19.219 44.157 18.669 43.073 18.69 41.923C18.69 40.333 19.758 37.157 25.098 37.157H32.036V45.912H32.035ZM38.55 32.862C38.55 28.849 37.659 25.8 35.732 23.694C33.808 21.588 29.934 20.54 26.342 20.54C22.738 20.526 19.193 21.472 16.072 23.282C15.874 23.4 15.752 23.615 15.756 23.847L16.026 28.272C16.1 28.701 16.508 28.988 16.936 28.912C17.077 28.888 17.209 28.825 17.316 28.731C21.718 26.013 27 25.506 29.688 26.871C31.195 27.741 32.098 29.377 32.036 31.121V31.767H24.699C21.542 31.767 11.87 32.944 11.87 41.852V41.947C11.718 44.696 12.882 47.354 15.004 49.101C17.29 50.716 20.054 51.508 22.844 51.349H37.694C38.173 51.349 38.562 50.959 38.562 50.479V32.826L38.55 32.861V32.862ZM112.286 45.395C108.659 45.395 106.041 42.735 104.938 39.428C104.158 37.139 104.158 34.656 104.938 32.367C106.041 29.06 108.659 26.401 112.286 26.401C120.396 26.401 120.666 34.697 120.666 35.898C120.666 37.098 120.396 45.395 112.286 45.395ZM127.322 35.909C127.386 32.543 126.374 29.244 124.435 26.495C119.229 19.768 109.57 18.545 102.86 23.765C101.842 24.557 100.928 25.474 100.137 26.495C96.232 32.161 96.232 39.658 100.137 45.324C103.006 49.142 107.519 51.358 112.287 51.291C115.364 51.301 118.377 50.391 120.937 48.678V52.397C120.937 57.445 116.535 58.363 113.717 58.539C111.779 58.604 109.839 58.498 107.919 58.222C107.145 58.104 106.605 58.222 106.605 59.057V63.529C106.625 63.952 106.981 64.279 107.402 64.259H107.403C113.941 64.824 118.343 64.706 121.653 62.812C123.971 61.437 125.693 59.241 126.477 56.657C127.062 54.663 127.343 52.592 127.31 50.514V35.909H127.322ZM148.932 22.269V25.8C148.998 26.303 148.646 26.765 148.145 26.833C148.015 26.85 147.882 26.839 147.757 26.801C142.052 25.624 138.543 28.166 138.543 33.451V50.514C138.543 50.994 138.153 51.384 137.675 51.384H132.627C132.147 51.384 131.759 50.994 131.759 50.514V33.085C131.698 29.751 133.049 26.547 135.479 24.271C137.947 21.852 141.266 20.507 144.717 20.528C145.899 20.531 147.077 20.641 148.238 20.858C148.837 21.058 148.931 21.411 148.931 22.318V22.27L148.932 22.269ZM49.958 50.515C49.958 50.995 49.568 51.385 49.089 51.385H44.042C43.562 51.385 43.173 50.995 43.173 50.515V8.91497C43.173 8.43797 43.555 8.04897 44.03 8.04297H49.077C49.557 8.04297 49.947 8.43297 49.947 8.91497V50.515H49.957H49.958ZM61.813 50.515C61.813 50.995 61.423 51.385 60.945 51.385H55.897C55.417 51.385 55.028 50.995 55.028 50.515V8.91497C55.028 8.43297 55.418 8.04297 55.897 8.04297H60.945C61.424 8.04297 61.813 8.43297 61.813 8.91497V50.515ZM172.441 39.453C171.337 42.76 168.719 45.336 165.093 45.419C161.465 45.502 158.848 42.759 157.756 39.453C156.976 37.163 156.976 34.68 157.756 32.392C158.86 29.085 161.477 26.507 165.093 26.425C168.708 26.343 171.337 29.085 172.441 32.392C173.217 34.677 173.217 37.156 172.441 39.441V39.453ZM177.253 26.507C172.047 19.781 162.388 18.559 155.678 23.777C154.661 24.57 153.746 25.487 152.956 26.507C151.029 29.264 150.019 32.557 150.068 35.922C150.019 39.287 151.029 42.581 152.956 45.336C158.162 52.063 167.821 53.286 174.53 48.066C175.548 47.275 176.463 46.358 177.253 45.336C179.178 42.581 180.189 39.286 180.141 35.922C180.189 32.558 179.178 29.264 177.253 26.507Z" fill="#222222"/>
</g>
</g>
</g>
</g>
</g>
</symbol><symbol id="booking" viewBox="0 0 193 70"><path fill-rule="evenodd" clip-rule="evenodd" d="M110.349 27.115C112.676 27.115 114.11 27.935 114.91 28.625L115.138 28.824L115.275 28.558C115.638 27.875 116.361 27.501 117.3 27.501H119.604L119.584 43.405C119.584 49.468 114.66 51.624 110.442 51.624C108.394 51.624 106.127 51.072 104.387 50.151L104.041 49.968L104.597 48.548L104.99 47.578C105.417 46.526 106.031 46.265 107.083 46.581C107.888 46.872 109.091 47.194 110.413 47.194C113.133 47.194 114.636 45.915 114.636 43.601V43.119L114.253 43.405C113.263 44.152 112.019 44.518 110.442 44.518C105.825 44.518 102.6 40.913 102.6 35.752C102.6 30.587 105.718 27.115 110.349 27.115ZM137.559 27.21C140.114 27.21 143.916 28.293 143.916 31.275V33.535L141.324 33.531C141.107 33.531 140.004 33.467 139.639 32.254L139.617 32.165C139.457 31.63 138.447 31.311 137.559 31.311C134.821 31.311 132.909 33.327 132.909 36.207C132.909 39.544 135.374 41.041 137.818 41.041C140.335 41.041 142.281 39.15 142.52 38.906L142.544 38.881L142.814 38.594L144.867 41.991L144.731 42.159C144.707 42.188 142.154 45.269 137.458 45.269C132.046 45.269 128.123 41.475 128.123 36.242C128.123 31.012 132.088 27.21 137.559 27.21ZM28.742 27.193C34.015 27.193 37.842 30.97 37.842 36.173C37.842 41.375 34.015 45.153 28.742 45.153C23.488 45.153 19.676 41.375 19.676 36.173C19.676 30.97 23.488 27.193 28.742 27.193ZM48.195 27.193C53.462 27.193 57.297 30.97 57.297 36.173C57.297 41.375 53.462 45.153 48.195 45.153C42.936 45.153 39.124 41.375 39.124 36.173C39.124 30.97 42.936 27.193 48.194 27.193H48.195ZM154.355 27.193C159.621 27.193 163.455 30.97 163.455 36.173C163.455 41.375 159.621 45.153 154.355 45.153C149.097 45.153 145.285 41.375 145.285 36.173C145.285 30.97 149.097 27.193 154.355 27.193ZM124.425 39.313C126.017 39.313 127.311 40.605 127.311 42.2C127.311 43.792 126.017 45.085 124.424 45.085C122.837 45.085 121.547 43.792 121.547 42.2C121.547 40.605 122.837 39.312 124.424 39.312L124.425 39.313ZM79.003 27.547C80.759 27.547 81.609 28.407 81.609 30.179L81.599 44.877H81.589V44.883H80.429L79.262 44.887C79.231 44.887 79.204 44.883 79.172 44.883H76.667V40.953H76.669L76.655 27.547H79.004H79.003ZM61.42 20.878C62.79 20.878 64.06 21.155 64.06 23.19V33.362H64.855C65.451 33.362 65.849 33.215 66.045 32.927L69.529 27.547H75.157L70.52 34.425C70.283 34.774 70.036 35.075 69.796 35.328L69.628 35.488L69.788 35.656C70.036 35.914 70.271 36.24 70.475 36.623L72.363 40.189L75.208 44.889H71.385C69.945 44.889 69.181 44.647 68.411 43.242L65.661 38.059C65.483 37.752 65.096 37.686 64.528 37.686H64.06V44.888H59.075L59.069 20.879H61.419L61.42 20.878ZM94.683 27.153C98.737 27.153 100.879 29.47 100.879 33.853L100.887 44.882H98.529C96.729 44.882 95.896 44.04 95.896 42.245V34.693C95.896 32.588 95.293 31.773 93.746 31.773C91.825 31.773 90.286 32.937 89.736 34.81C89.528 35.428 89.427 36.106 89.427 36.889V44.882H84.475L84.461 27.54H86.695C88.047 27.54 88.945 28.101 89.21 29.12L89.318 29.534L89.621 29.23C90.527 28.28 92.146 27.153 94.683 27.153ZM185.578 27.209L185.81 27.213C189.481 27.303 191.346 29.537 191.346 33.852L191.341 44.877H189.115C187.367 44.877 186.589 44.099 186.589 42.353V34.639C186.589 32.428 186.049 31.604 184.594 31.604C182.581 31.604 181.284 33.407 180.902 35.168C180.715 35.792 180.636 36.418 180.636 37.253V44.877H175.872V34.639C175.872 32.721 175.244 31.729 173.959 31.607C171.873 31.409 170.63 33.39 170.179 35.233C170.013 35.924 169.929 36.587 169.929 37.253V44.877H165.2L165.22 27.605H167.301C168.599 27.605 169.457 28.133 169.717 29.095L169.899 29.762L170.368 29.254C171.086 28.494 172.628 27.21 174.931 27.21C177.127 27.21 178.705 28.058 179.622 29.727L179.903 30.235L180.262 29.781C181.537 28.171 183.525 27.211 185.58 27.211L185.578 27.209ZM4.68101 20.888H9.86101C14.401 20.888 17.333 23.325 17.333 27.098C17.333 29.564 16.093 30.991 15.353 31.626L14.717 32.169L15.446 32.579C17.215 33.572 18.266 35.526 18.266 37.814C18.266 42.058 15.011 44.8 9.96401 44.8L4.04101 44.801L4.03101 44.8H1.65401V23.38C1.66701 22.029 2.74601 20.935 4.09201 20.888H4.68101ZM28.742 31.395C26.258 31.395 24.534 33.362 24.534 36.174C24.534 38.984 26.258 40.954 28.742 40.954C31.275 40.954 32.984 39.03 32.984 36.174C32.984 33.362 31.24 31.394 28.742 31.394V31.395ZM48.195 31.395C45.712 31.395 43.984 33.362 43.984 36.174C43.984 38.984 45.712 40.954 48.194 40.954C50.728 40.954 52.437 39.03 52.437 36.174C52.437 33.362 50.687 31.394 48.195 31.394V31.395ZM154.355 31.395C151.872 31.395 150.142 33.362 150.142 36.174C150.142 38.984 151.872 40.954 154.354 40.954C156.887 40.954 158.599 39.03 158.599 36.174C158.599 33.362 156.847 31.394 154.354 31.394L154.355 31.395ZM10.295 34.253H7.54801C6.66501 34.377 6.26501 34.91 6.26501 35.939V40.75L10.296 40.755C12.291 40.754 13.528 39.538 13.528 37.488C13.528 35.488 12.258 34.253 10.296 34.253H10.295ZM111.059 31.475C107.896 31.475 107.649 34.65 107.649 35.623C107.649 37.831 108.613 40.189 111.319 40.189C112.874 40.189 114.728 39.426 114.728 35.786C114.728 31.927 112.633 31.476 111.059 31.476V31.475ZM9.82901 24.808H7.76601C6.73601 24.876 6.26501 25.402 6.26501 26.511V30.554H9.89301C11.932 30.554 12.658 28.981 12.658 27.633C12.658 25.866 11.598 24.808 9.82801 24.808H9.82901ZM78.937 20.126C80.53 20.126 81.825 21.416 81.825 23.012C81.825 24.604 80.53 25.895 78.937 25.895C77.348 25.895 76.059 24.604 76.059 23.012C76.059 21.417 77.349 20.126 78.937 20.126Z" fill="#222222"/>
</symbol><symbol id="euro" viewBox="0 0 192 70"><g clip-path="url(#clip0_1_164)">
<path fill-rule="evenodd" clip-rule="evenodd" d="M17.747 27.698V21.481H39.607L45.576 38.112L51.621 21.481H58.288L48.599 48.293H42.63L35.111 27.698H29.452V48.293H23.019V27.698H17.747Z" fill="#222222"/>
<path fill-rule="evenodd" clip-rule="evenodd" d="M6.97203 33.7601V26.8441C14.182 26.3771 14.027 34.1481 6.97203 33.7601ZM12.787 48.2931H20.151L13.949 37.5691C21.623 34.9261 19.53 21.3251 11.004 21.4811H0.228027V48.2931H6.97203V38.3461L12.787 48.2931ZM134.564 21.4801H142.161L149.37 48.2931H144.02L142.78 43.5531H133.79L132.548 48.2931H127.355L134.565 21.4811L134.564 21.4801ZM141.463 38.6561H135.107L138.285 26.7661L141.463 38.6561Z" fill="#222222"/>
<path fill-rule="evenodd" clip-rule="evenodd" d="M159.292 38.967V33.217H171.152V42.542C169.292 44.952 168.052 46.817 165.57 47.983C163.943 48.759 161.307 49.381 158.904 49.381C155.959 49.381 153.555 48.837 151.694 47.75C149.835 46.583 148.673 45.107 147.664 42.93C146.657 40.677 146.424 38.112 146.424 35.236C146.424 32.206 146.812 29.486 147.974 27.31C149.059 25.056 150.688 23.424 152.858 22.257C154.563 21.325 156.346 20.937 159.214 20.937C162.004 20.937 164.02 21.17 165.416 21.714C166.811 22.257 167.896 23.113 168.826 24.279C169.679 25.445 170.376 26.921 170.842 28.709L164.33 30.185C164.02 29.097 163.555 28.32 162.78 27.775C162.082 27.233 161.152 26.844 160.067 26.688C157.82 26.377 156.037 27.62 155.029 28.864C154.021 30.184 153.555 32.205 153.555 35.082C153.555 38.035 154.021 40.599 155.029 41.92C156.037 43.165 157.509 43.864 159.292 43.864C160.145 43.864 160.997 43.708 161.772 43.396C162.547 43.165 163.401 42.698 164.408 41.998V38.968H159.292V38.967ZM180.687 27.543H177.198V42.309H180.687C187.197 42.309 187.352 27.543 180.687 27.543ZM179.679 21.481H171.152V48.371H179.679C195.648 48.371 195.958 21.481 179.679 21.481Z" fill="#222222"/>
<mask id="mask0_1_164" style="mask-type:alpha" maskUnits="userSpaceOnUse" x="0" y="0" width="192" height="70">
<path d="M0 70H192V0H0V70Z" fill="white"/>
</mask>
<g mask="url(#mask0_1_164)">
<path fill-rule="evenodd" clip-rule="evenodd" d="M52.397 48.294H131.076V21.481H52.397V48.294Z" fill="white"/>
<path fill-rule="evenodd" clip-rule="evenodd" d="M51.622 48.293H131.851V21.48H51.62V48.293H51.622ZM53.172 46.893H130.378V22.958H53.173V46.895L53.172 46.893Z" fill="#222222"/>
<path fill-rule="evenodd" clip-rule="evenodd" d="M70.846 41.766H57.358V27.931H70.459V30.651H61.002V33.449H69.76V35.392H61.002V39.434H70.846V41.766ZM107.433 41.766H103.324L103.248 38.035C103.248 36.092 100.845 36.169 99.294 36.169H96.736V41.766H92.473V27.93H102.085C108.364 27.93 109.837 33.06 105.185 34.926C106.348 35.313 107.355 36.48 107.355 37.956L107.433 41.765V41.766ZM96.581 34.07H100.612C101.698 34.07 102.55 33.914 103.016 33.681C103.48 33.371 103.79 32.904 103.79 32.282C103.79 31.117 102.782 30.495 100.845 30.495H96.581V34.07ZM118.518 27.698C119.758 27.698 120.921 27.854 121.929 28.242C123.014 28.554 123.944 29.019 124.719 29.642C125.495 30.262 126.038 31.04 126.502 31.895C126.89 32.827 127.122 33.76 127.122 34.849C127.122 35.859 126.968 36.869 126.502 37.724C126.115 38.58 125.495 39.356 124.719 39.978C123.944 40.599 123.014 41.143 122.007 41.455C120.921 41.765 119.759 41.998 118.518 41.998C117.278 41.998 116.038 41.766 115.03 41.455C113.945 41.143 113.015 40.599 112.318 39.978C111.542 39.356 110.921 38.656 110.535 37.724C110.069 36.869 109.836 35.936 109.836 34.849C109.836 33.76 110.069 32.749 110.535 31.895C110.921 31.04 111.542 30.263 112.318 29.642C113.093 29.019 114.023 28.554 115.03 28.242C116.116 27.854 117.278 27.698 118.518 27.698ZM118.518 39.511C119.216 39.511 119.914 39.434 120.611 39.201C121.231 38.967 121.774 38.656 122.239 38.268C122.704 37.88 123.014 37.413 123.324 36.792C123.557 36.248 123.712 35.548 123.712 34.849C123.712 34.071 123.557 33.449 123.324 32.827C123.014 32.283 122.704 31.817 122.239 31.429C121.774 31.039 121.231 30.729 120.611 30.496C119.914 30.263 119.293 30.185 118.518 30.185C117.82 30.185 117.123 30.263 116.426 30.495C115.806 30.729 115.263 31.04 114.798 31.429C114.333 31.817 113.945 32.283 113.712 32.905C113.48 33.449 113.325 34.071 113.325 34.849C113.325 35.548 113.48 36.248 113.712 36.792C113.945 37.413 114.332 37.88 114.798 38.268C115.263 38.656 115.805 38.968 116.426 39.201C117.046 39.434 117.743 39.511 118.518 39.511ZM74.8 27.931H78.288V37.724C78.442 40.444 85.264 40.366 85.108 37.724V27.93H88.907L88.829 37.956C88.907 43.086 74.876 43.086 74.799 37.956V27.931H74.8ZM125.96 27.854C124.874 27.854 124.022 26.999 124.022 25.91C124.022 24.823 124.874 23.968 125.96 23.968C127.046 23.968 127.898 24.823 127.898 25.91C127.898 26.999 127.046 27.854 125.96 27.854ZM125.96 27.543C126.89 27.543 127.588 26.766 127.588 25.91C127.588 24.978 126.89 24.2 125.96 24.2C125.03 24.2 124.332 24.978 124.332 25.91C124.332 26.766 125.03 27.543 125.96 27.543ZM125.65 25.677H126.348C126.348 25.6 126.425 25.6 126.425 25.6C126.503 25.523 126.503 25.445 126.503 25.445C126.503 25.367 126.503 25.289 126.425 25.211C126.425 25.211 126.348 25.134 126.27 25.134H125.65V25.677ZM125.185 26.922V24.822H126.58L126.813 25.056C126.89 25.134 126.89 25.289 126.89 25.366C126.89 25.523 126.89 25.677 126.813 25.756C126.657 25.832 126.58 25.91 126.348 25.988C126.425 25.988 126.503 26.066 126.58 26.144C126.657 26.222 126.735 26.3 126.813 26.454L127.123 26.922H126.58L126.27 26.454C126.193 26.3 126.115 26.144 126.038 26.144C126.038 26.066 125.96 26.066 125.96 26.066C125.882 25.988 125.805 25.988 125.727 25.988H125.65V26.922H125.185Z" fill="#222222"/>
</g>
</g>
<defs>
<clipPath id="clip0_1_164">
<rect width="192" height="70" fill="white"/>
</clipPath>
</defs>
</symbol><symbol id="groupon" viewBox="0 0 193 70"><g id="Frame">
<g id="Group">
<g id="Group_2">
<g id="Group_3">
<g id="Group_4">
<path id="Vector" fill-rule="evenodd" clip-rule="evenodd" d="M96.1159 49.316C102.318 49.316 106.45 45.307 106.45 38.542V21.235H99.6659V38.27C99.6659 41.42 98.5309 42.98 96.1519 42.98C93.8559 42.98 92.8729 41.383 92.8729 38.27V21.235H86.0529V38.542C86.0619 45.457 89.8379 49.316 96.1139 49.316H96.1159ZM116.521 33.991H115.275V27.421H117.065C120.072 27.421 121.515 28.356 121.515 30.646C121.505 33.132 119.875 33.991 116.521 33.991ZM124.625 22.749C122.751 21.431 120.531 21.235 117.608 21.235H108.408V48.886H115.19V39.981H117.14C120.025 39.981 122.208 39.784 123.97 38.738C126.733 37.066 128.373 34.113 128.373 30.533C128.373 27.066 127.09 24.459 124.625 22.749ZM165.886 33.486L176.22 48.887H182.179V21.235H175.406V36.598L165.221 21.235H159.103V48.887H165.886V33.486ZM70.0699 42.55C66.2469 42.55 62.7799 39.205 62.7799 34.85C62.7799 30.804 66.0129 27.581 70.1539 27.581C74.0519 27.581 77.2939 30.804 77.2939 34.851C77.2839 39.355 74.0519 42.551 70.0699 42.551V42.55ZM80.0099 24.814C77.3209 22.17 73.8169 20.731 70.1069 20.731C66.1719 20.731 62.7339 22.095 60.0069 24.777C57.2809 27.458 55.7909 30.963 55.7909 34.775C55.7909 38.859 57.1219 42.279 59.7269 45.046C62.4519 47.924 65.9659 49.4 70.0599 49.4C73.9199 49.4 77.5839 47.887 80.2719 45.084C82.8869 42.401 84.2919 38.859 84.2919 34.898C84.3019 31.112 82.8209 27.571 80.0099 24.814ZM143.541 42.55C139.719 42.55 136.252 39.205 136.252 34.85C136.252 30.804 139.494 27.581 143.625 27.581C147.523 27.581 150.765 30.804 150.765 34.851C150.755 39.355 147.514 42.551 143.541 42.551V42.55ZM153.481 24.814C150.793 22.17 147.279 20.731 143.579 20.731C139.634 20.731 136.206 22.095 133.479 24.777C130.752 27.458 129.263 30.963 129.263 34.775C129.263 38.859 130.593 42.279 133.197 45.046C135.934 47.924 139.437 49.4 143.532 49.4C147.392 49.4 151.055 47.887 153.744 45.084C156.358 42.401 157.764 38.859 157.764 34.898C157.774 31.112 156.292 27.571 153.482 24.814H153.481ZM8.58094 45.036C11.3069 47.914 14.7839 49.429 18.8779 49.429C23.5989 49.429 28.0409 47.092 30.6919 43.242C32.2939 40.905 33.0719 38.261 33.0719 35.15C33.0719 34.57 33.0339 33.944 32.9969 33.317H17.2009V38.84H25.1179C23.7489 41.252 21.4539 42.578 18.8779 42.578C15.0549 42.578 11.6259 39.196 11.6259 34.794C11.6259 30.823 14.8209 27.524 18.8779 27.524C21.0609 27.524 22.8499 28.422 24.5739 30.207H32.2939C30.0739 24.291 24.8839 20.674 18.9619 20.674C15.0269 20.674 11.5969 22.076 8.86194 24.758C6.13594 27.441 4.65594 30.945 4.65594 34.757C4.64594 38.85 5.96694 42.27 8.58094 45.037V45.036ZM42.8909 33.991H41.5689V27.421H43.4429C46.4409 27.421 47.8839 28.356 47.8839 30.646C47.8839 33.132 46.2439 33.991 42.8909 33.991ZM48.4649 39.392C52.3999 38.299 54.7429 34.962 54.7429 30.487C54.7429 27.067 53.4579 24.459 50.9949 22.749C49.1209 21.431 46.9009 21.235 43.9769 21.235H34.7769V48.886H41.5599V39.981L46.8629 48.886H55.2479L48.4649 39.392ZM184.99 21.375C185.346 21.021 185.767 20.843 186.264 20.843C186.76 20.843 187.191 21.021 187.538 21.375C187.885 21.722 188.063 22.151 188.063 22.645C188.063 23.142 187.885 23.572 187.538 23.927C187.191 24.281 186.77 24.459 186.264 24.459C185.767 24.459 185.336 24.281 184.99 23.927C184.642 23.572 184.465 23.151 184.465 22.646C184.465 22.151 184.634 21.731 184.99 21.376V21.375ZM186.254 24.74C186.836 24.74 187.332 24.534 187.734 24.123C188.147 23.712 188.344 23.216 188.344 22.646C188.344 22.066 188.138 21.581 187.734 21.178C187.332 20.777 186.836 20.572 186.254 20.572C185.683 20.572 185.186 20.777 184.784 21.178C184.371 21.591 184.174 22.076 184.174 22.646C184.174 23.225 184.381 23.721 184.784 24.123C185.186 24.533 185.674 24.74 186.254 24.74Z" fill="#222222"/>
<path id="Vector_2" fill-rule="evenodd" clip-rule="evenodd" d="M186.573 22.5431C186.489 22.5811 186.357 22.5911 186.189 22.5911H185.824V21.7591H186.17C186.395 21.7591 186.555 21.7871 186.657 21.8431C186.76 21.8991 186.807 22.0111 186.807 22.1791C186.807 22.3661 186.723 22.4891 186.573 22.5431ZM187.182 23.7491C187.173 23.7291 187.163 23.6921 187.163 23.6281C187.163 23.5721 187.153 23.5071 187.153 23.4601V23.2901C187.153 23.1801 187.117 23.0581 187.032 22.9351C186.948 22.8151 186.817 22.7401 186.639 22.7111C186.779 22.6931 186.892 22.6551 186.967 22.5991C187.117 22.5061 187.192 22.3471 187.192 22.1511C187.192 21.8611 187.07 21.6651 186.835 21.5721C186.704 21.5151 186.499 21.4871 186.207 21.4871H185.402V23.7771H185.805V22.8801H186.123C186.339 22.8801 186.489 22.9081 186.573 22.9551C186.723 23.0391 186.789 23.2171 186.789 23.4781V23.6561L186.798 23.7301V23.7591C186.798 23.7681 186.798 23.7771 186.808 23.7771H187.182V23.7491Z" fill="#222222"/>
</g>
</g>
</g>
</g>
</g>
</symbol><symbol id="lidl" viewBox="0 0 192 70"><g id="Frame">
<g id="Group">
<g id="Group_2">
<g id="Group_3">
<g id="Group_4">
<g id="Group_5">
<path id="Vector" fill-rule="evenodd" clip-rule="evenodd" d="M61.174 69.916H130.824V0.0839844H61.174V69.916Z" fill="#222222"/>
<g id="Group_6">
<path id="Vector_2" fill-rule="evenodd" clip-rule="evenodd" d="M96 4.0271C78.941 4.0271 65.105 17.9001 65.105 35.0101C65.105 52.1021 78.941 65.9761 95.998 65.9761C113.054 65.9761 126.891 52.1021 126.891 35.0101C126.892 17.9001 113.055 4.0271 95.999 4.0271" fill="white"/>
<path id="Vector_3" fill-rule="evenodd" clip-rule="evenodd" d="M94.079 35.869L88.63 30.407L82.339 36.719V38.839L83.923 37.243L88.31 41.652L86.692 43.276L87.745 44.342L96.521 35.523V33.414L94.079 35.869ZM68.617 29.253H78.332V31.355H76.712V38.15L82.339 35.01V40.766H68.617V38.655H70.246V31.355H68.617V29.253ZM109.579 29.253V31.355H111.206V38.655H109.579V40.766H123.309V35.01L117.672 38.15V31.355H119.301V29.253H109.579ZM87.824 22.708C89.734 22.708 91.284 24.252 91.284 26.166C91.284 28.082 89.734 29.636 87.824 29.636C85.914 29.636 84.365 28.082 84.365 26.166C84.365 24.251 85.915 22.708 87.825 22.708" fill="#222222"/>
<path id="Vector_4" fill-rule="evenodd" clip-rule="evenodd" d="M104.164 29.2532H94.902V31.3552H96.522V38.6552H94.902V40.7652H104.164C111.012 40.7652 111.082 29.2532 104.164 29.2532Z" fill="#222222"/>
<path id="Vector_5" fill-rule="evenodd" clip-rule="evenodd" d="M102.863 37.1731H102.403V32.8281H102.793C104.819 32.8281 104.819 37.1831 102.863 37.1731Z" fill="white"/>
</g>
</g>
</g>
</g>
</g>
</g>
</g>
</symbol><symbol id="mediamarkt" viewBox="0 0 193 70"><g id="Frame">
<g id="Group">
<g id="Group_2">
<g id="Group_3">
<g id="Group_4">
<g id="Group_5">
<path id="Vector" fill-rule="evenodd" clip-rule="evenodd" d="M163.098 30.833C163.005 30.721 162.864 30.654 162.715 30.654H160.119C159.883 30.654 159.676 30.819 159.629 31.05L159.427 32.03C158.851 31.514 158.276 31.184 157.452 30.865L157.194 30.752C157.162 30.741 157.131 30.728 157.098 30.722C154.28 30.105 151.447 30.952 149.128 33.106C147.97 34.169 147.092 35.401 146.51 36.727L149.92 22.911C149.95 22.801 149.924 22.681 149.853 22.591C149.783 22.501 149.673 22.448 149.558 22.448H146.398C146.288 22.448 146.188 22.493 146.117 22.575L132.367 38.057C132.849 35.737 135.551 22.898 135.551 22.898C135.551 22.873 135.558 22.845 135.558 22.821C135.558 22.738 135.531 22.652 135.474 22.586C135.404 22.499 135.295 22.448 135.184 22.448H131.694C131.583 22.448 131.479 22.496 131.409 22.575L113.971 42.665C113.678 39.74 112.284 36.555 112.284 36.555C109.947 31.778 104.747 30.231 101.798 32.97L101.778 32.975L101.315 33.31C103.454 29.904 108.882 30.056 112.375 34.066C112.375 34.066 113.928 35.928 115.029 38.698C115.323 37.72 115.503 36.706 115.558 35.67C113.738 33.215 111.688 31.773 111.688 31.773C107.274 28.803 101.991 30.057 100.81 33.9L100.794 33.916L100.566 34.436C100.71 30.416 105.484 27.844 110.518 29.573C110.518 29.573 112.888 30.441 115.28 32.363C115.248 32.21 115.215 32.057 115.173 31.903C114.915 30.888 114.539 29.925 114.056 29.028C111.266 27.823 108.792 27.599 108.792 27.599C103.479 27.231 99.535 30.947 100.439 34.865L100.432 34.886L100.492 35.453C98.604 31.899 101.448 27.293 106.672 26.276C106.672 26.276 109.099 25.856 112.082 26.299C111.326 25.502 110.462 24.804 109.504 24.214C106.513 24.564 104.281 25.597 104.281 25.597C99.498 27.925 97.944 33.114 100.691 36.059L100.694 36.076L101.031 36.539C97.616 34.403 97.771 28.992 101.787 25.506C101.787 25.506 103.664 23.946 106.457 22.84C105.305 22.496 104.11 22.32 102.906 22.313C100.571 24.085 99.209 26.01 99.209 26.01C96.232 30.415 97.489 35.683 101.34 36.863L101.355 36.875L101.878 37.108C97.851 36.964 95.272 32.2 97.004 27.178C97.004 27.178 97.802 25.012 99.562 22.735C98.554 22.996 97.601 23.377 96.707 23.855C95.57 26.56 95.357 28.915 95.357 28.915C94.987 34.215 98.715 38.15 102.643 37.251L102.661 37.256L103.231 37.193C99.669 39.079 95.048 36.241 94.034 31.026C94.034 31.026 93.627 28.696 94.034 25.793C93.185 26.595 92.442 27.516 91.827 28.545C92.208 31.405 93.182 33.507 93.182 33.507C95.517 38.282 100.717 39.831 103.666 37.09L103.688 37.086L104.15 36.752C102.012 40.157 96.583 40.005 93.092 35.995C93.092 35.995 91.302 33.764 90.366 31.165C90.368 31.043 90.331 30.926 90.254 30.833C90.158 30.721 90.018 30.654 89.866 30.654H87.273C87.035 30.654 86.83 30.819 86.78 31.05C86.78 31.05 86.581 31.352 86.49 31.946C85.914 31.432 85.231 31.134 84.608 30.865L84.344 30.752C84.314 30.741 84.281 30.728 84.251 30.722C81.433 30.105 78.601 30.952 76.281 33.106C74.91 34.365 73.926 35.858 73.367 37.471L73.319 37.577L74.422 31.237C74.446 31.094 74.406 30.944 74.31 30.831C74.213 30.719 74.072 30.653 73.926 30.654L71.158 30.658C70.916 30.659 70.708 30.831 70.665 31.071L67.805 46.627C67.78 46.773 67.821 46.924 67.915 47.039C68.01 47.15 68.152 47.215 68.3 47.215L71.217 47.222C71.463 47.222 71.672 47.046 71.712 46.806L72.814 40.476C72.826 40.516 72.836 40.542 72.836 40.542C72.826 41.171 72.878 41.809 72.996 42.446C73.425 44.825 75.539 47.044 77.818 47.496C79.806 47.855 81.932 47.352 84.03 46.06C83.989 46.286 83.923 46.627 83.923 46.627C83.917 46.657 83.915 46.687 83.915 46.719C83.915 46.835 83.955 46.949 84.03 47.039C84.124 47.152 84.266 47.215 84.418 47.215L86.992 47.222C87.234 47.222 87.442 47.052 87.486 46.814L89.752 34.571C91.447 36.579 93.664 38.294 93.664 38.294C98.077 41.266 103.358 40.011 104.539 36.17L104.557 36.153L104.786 35.631C104.642 39.65 99.866 42.226 94.832 40.494C94.832 40.494 92.661 39.698 90.374 37.942C90.393 38.025 90.41 38.111 90.431 38.196C90.703 39.247 91.096 40.245 91.605 41.171C94.265 42.264 96.56 42.471 96.56 42.471C101.87 42.841 105.815 39.122 104.913 35.203L104.92 35.183L104.857 34.614C106.747 38.168 103.902 42.781 98.675 43.791C98.675 43.791 96.392 44.191 93.528 43.804C94.214 44.524 94.986 45.17 95.839 45.724C98.807 45.365 101.005 44.345 101.005 44.345C105.79 42.018 107.346 36.828 104.599 33.886L104.593 33.864L104.257 33.404C107.673 35.539 107.52 40.95 103.503 44.437C103.503 44.437 101.587 46.024 98.755 47.132C99.535 47.395 100.339 47.581 101.152 47.688H102.31C104.689 45.898 106.077 43.932 106.077 43.932C109.057 39.527 107.801 34.257 103.947 33.08L103.932 33.064L103.411 32.834C107.439 32.979 110.019 37.742 108.286 42.766C108.286 42.766 107.42 45.116 105.501 47.499C105.655 47.465 105.803 47.433 105.956 47.393C106.93 47.147 107.846 46.786 108.697 46.348C109.887 43.585 110.107 41.143 110.107 41.143C110.48 35.847 106.751 31.909 102.82 32.81L102.804 32.806L102.235 32.866C105.795 30.982 110.419 33.82 111.435 39.035C111.435 39.035 112.021 41.429 111.582 44.265C111.498 44.675 111.326 45.268 110.994 45.902C110.894 46.078 110.769 46.286 110.617 46.528L110.621 46.521C110.619 46.528 110.613 46.533 110.609 46.541C110.605 46.548 110.605 46.549 110.605 46.555C110.545 46.656 110.533 46.783 110.585 46.895C110.643 47.029 110.777 47.114 110.926 47.111H112.545C113.397 47.107 114.128 47.102 115.101 47.136C115.217 47.138 115.328 47.088 115.402 47.003L129.482 30.209C128.888 33.273 127.203 41.151 125.997 46.682C125.994 46.709 125.991 46.736 125.991 46.762C125.991 46.847 126.019 46.93 126.071 46.996C126.144 47.086 126.251 47.136 126.369 47.136L129.217 47.111C129.325 47.111 129.428 47.065 129.498 46.981C129.498 46.981 142.127 32.244 143.743 30.361C143.07 33.437 141.226 41.207 139.912 46.674C139.902 46.704 139.898 46.73 139.898 46.761C139.898 46.842 139.926 46.925 139.98 46.992C140.052 47.083 140.159 47.136 140.276 47.136H143.644C143.816 47.136 143.969 47.019 144.01 46.849L145.468 40.948L145.671 40.118C145.678 40.355 145.681 40.542 145.681 40.542C145.674 41.171 145.726 41.809 145.844 42.446C146.269 44.825 148.388 47.044 150.663 47.496C152.65 47.855 154.779 47.352 156.876 46.06L156.769 46.627C156.764 46.657 156.76 46.687 156.76 46.719C156.76 46.835 156.8 46.949 156.874 47.039C156.972 47.152 157.114 47.215 157.26 47.215L159.836 47.222C160.081 47.222 160.287 47.052 160.331 46.814L162.657 34.487L163.214 31.165C163.216 31.043 163.178 30.926 163.097 30.833H163.098ZM1.37 46.896V46.586C1.386 46.554 1.405 46.523 1.43 46.496L22.234 22.575C22.306 22.495 22.408 22.447 22.519 22.447H25.877C25.987 22.447 26.093 22.498 26.167 22.585C26.22 22.651 26.251 22.739 26.251 22.82C26.251 22.844 26.246 22.872 26.241 22.897C26.241 22.897 23.636 35.735 23.151 38.057C24.794 36.207 36.903 22.575 36.903 22.575C36.973 22.493 37.077 22.448 37.181 22.448H40.343C40.459 22.448 40.569 22.501 40.64 22.591C40.71 22.681 40.736 22.801 40.706 22.911L37.388 36.351C37.416 36.301 37.439 36.252 37.465 36.206C39.044 33.142 42.045 30.988 45.292 30.592C45.302 30.589 45.315 30.589 45.328 30.589C48.265 30.441 50.532 31.549 51.891 33.789L51.913 33.825C52.401 34.803 52.765 36.118 52.83 37.471C53.385 35.858 54.37 34.365 55.74 33.106C58.06 30.952 60.89 30.105 63.711 30.722C63.74 30.728 63.775 30.741 63.804 30.752L64.066 30.865C64.692 31.134 65.373 31.432 65.949 31.946C66.254 30.515 67.149 26.268 67.149 26.268C67.199 26.038 67.403 25.872 67.639 25.872H70.234C70.384 25.872 70.524 25.939 70.62 26.05C70.715 26.164 70.755 26.316 70.73 26.462L66.945 46.814C66.9 47.052 66.694 47.222 66.452 47.222L63.877 47.215C63.727 47.215 63.583 47.152 63.488 47.039C63.413 46.949 63.372 46.835 63.372 46.719C63.372 46.688 63.376 46.656 63.382 46.627C63.382 46.627 63.447 46.286 63.488 46.06C61.39 47.352 59.267 47.855 57.277 47.495C55 47.044 52.883 44.825 52.455 42.446C52.339 41.809 52.287 41.171 52.293 40.542C52.203 40.622 52.084 40.672 51.957 40.672L40.007 40.677C39.996 40.727 39.987 40.77 39.987 40.822C39.987 41.004 40.051 41.242 40.133 41.512L40.184 41.687C40.751 43.077 42.112 43.949 43.656 43.912C45.191 43.877 46.613 43.144 47.877 41.735C47.97 41.628 48.107 41.568 48.248 41.568H50.912C51.084 41.568 51.246 41.656 51.335 41.802C51.428 41.947 51.44 42.129 51.368 42.284C49.855 45.456 46.464 47.586 42.905 47.586C40.428 47.49 38.35 46.288 37.193 44.278C36.617 43.207 36.344 41.878 36.36 40.516L34.797 46.849C34.755 47.019 34.602 47.136 34.43 47.136H31.06C30.946 47.136 30.837 47.083 30.768 46.992C30.712 46.925 30.684 46.842 30.684 46.762C30.684 46.73 30.689 46.703 30.694 46.674C32.011 41.207 33.856 33.437 34.526 30.362L20.283 46.982C20.213 47.065 20.111 47.111 20.002 47.111L17.155 47.136C17.04 47.136 16.934 47.086 16.861 46.996C16.807 46.93 16.777 46.846 16.777 46.761C16.777 46.736 16.777 46.709 16.784 46.682C17.989 41.151 19.674 33.272 20.267 30.209L6.187 47.003C6.114 47.088 6.003 47.138 5.887 47.136C4.915 47.102 4.183 47.106 3.331 47.111H1.71C1.565 47.114 1.432 47.029 1.37 46.896ZM158.467 39.332C157.884 41.364 155.957 43.299 154.072 43.755C152.63 43.945 151.574 43.81 150.842 43.335C150.065 42.803 149.675 41.88 149.374 41.048C149.324 40.75 149.294 40.45 149.294 40.157C149.294 38.306 150.288 36.522 152.116 35.155C153.163 34.423 154.592 34.145 155.842 34.431C156.547 34.594 157.515 35.012 158.117 36.101C158.452 36.692 158.633 37.441 158.633 38.171C158.633 38.575 158.577 38.971 158.467 39.332ZM41.131 36.997L48.874 36.924C48.814 36.371 48.522 35.854 47.91 35.242C47.235 34.665 46.31 34.394 44.995 34.387C43.571 34.585 41.908 35.519 41.131 36.997ZM65.081 39.332C65.191 38.971 65.244 38.575 65.244 38.172C65.244 37.441 65.066 36.692 64.73 36.102C64.123 35.012 63.16 34.594 62.452 34.432C61.204 34.145 59.775 34.422 58.724 35.155C56.901 36.522 55.906 38.305 55.906 40.157C55.906 40.45 55.934 40.75 55.986 41.048C56.287 41.88 56.676 42.803 57.452 43.335C58.188 43.81 59.246 43.945 60.683 43.755C62.567 43.299 64.494 41.364 65.081 39.332ZM71.389 26.268L70.784 29.54C70.756 29.686 70.797 29.839 70.892 29.957C70.987 30.069 71.128 30.135 71.28 30.135H74.2C74.44 30.135 74.65 29.965 74.693 29.725L75.242 26.482C75.265 26.337 75.226 26.185 75.133 26.072C75.038 25.959 74.897 25.892 74.753 25.891L71.882 25.866C71.642 25.864 71.435 26.035 71.389 26.268ZM85.622 39.332C85.037 41.364 83.108 43.299 81.226 43.755C79.786 43.945 78.73 43.81 77.994 43.335C77.218 42.803 76.83 41.88 76.529 41.048C76.477 40.75 76.449 40.45 76.449 40.157C76.449 38.306 77.442 36.522 79.269 35.155C80.319 34.423 81.744 34.145 82.996 34.431C83.702 34.594 84.667 35.012 85.271 36.101C85.608 36.692 85.788 37.441 85.788 38.171C85.788 38.575 85.731 38.971 85.622 39.332ZM181.598 45.773L176.788 38.069C177.178 37.61 181.271 32.635 182.102 31.66L181.734 33.589C181.706 33.736 181.747 33.887 181.843 34C181.937 34.113 182.077 34.181 182.228 34.181H183.503C183.358 35.061 182.024 43.168 181.598 45.773ZM167.596 31.605L167.653 31.245C167.682 31.1 167.64 30.949 167.548 30.835C167.451 30.722 167.312 30.655 167.164 30.655H164.566C164.326 30.652 164.116 30.821 164.07 31.059L163.997 31.451L161.221 46.585C161.197 46.731 161.241 46.884 161.339 46.997C161.437 47.109 161.586 47.176 161.736 47.172L163.018 47.153H164.223C164.463 47.153 164.663 46.986 164.71 46.755L166.615 37.363C167.244 34.983 168.825 34.274 170.223 34.068C170.298 34.058 170.58 34.062 170.64 34.024C169.682 39.718 168.548 46.46 168.527 46.574C168.503 46.716 168.545 46.864 168.64 46.977C168.734 47.088 168.876 47.153 169.019 47.153H171.816C172.035 47.153 172.23 47.013 172.292 46.803C172.382 46.529 173.051 42.659 173.452 40.334C174.488 41.901 177.797 46.924 177.797 46.924C177.89 47.064 178.047 47.148 178.214 47.148L181.558 47.153C181.619 47.153 181.674 47.139 181.731 47.121C181.802 47.153 181.881 47.175 181.959 47.172L184.782 47.153C185.026 47.151 185.231 46.977 185.271 46.743L187.451 34.187L190.691 34.182C190.934 34.182 191.141 34.007 191.184 33.769L191.62 31.235C191.626 31.207 191.629 31.181 191.629 31.15C191.629 31.036 191.587 30.922 191.513 30.832C191.418 30.72 191.279 30.655 191.128 30.655H187.935C188.091 29.759 188.659 26.455 188.659 26.455C188.663 26.427 188.666 26.399 188.666 26.371C188.666 26.252 188.626 26.138 188.549 26.05C188.456 25.935 188.313 25.873 188.168 25.873H185.361C185.119 25.873 184.911 26.047 184.869 26.285C184.869 26.285 184.245 29.978 184.129 30.655C183.875 30.663 183.614 30.668 183.614 30.668L183.176 30.671L182.711 30.663C182.533 30.659 182.374 30.75 182.281 30.893C182.191 30.757 182.039 30.668 181.869 30.668L179.3 30.663H178.549C178.409 30.663 178.277 30.722 178.18 30.823C178.18 30.823 175.596 33.777 174.224 35.26C174.625 32.91 175.732 26.463 175.732 26.463C175.736 26.433 175.739 26.406 175.739 26.376C175.739 26.26 175.696 26.146 175.619 26.058C175.526 25.943 175.386 25.879 175.239 25.879L172.444 25.873C172.198 25.871 171.987 26.046 171.948 26.284C171.883 26.669 171.593 28.384 171.204 30.671L171.191 30.651C171.093 30.536 170.95 30.476 170.798 30.481C169.608 30.516 168.533 31.002 167.596 31.605Z" fill="#222222"/>
</g>
</g>
</g>
</g>
</g>
</g>
</symbol><symbol id="zalando" viewBox="0 0 193 70"><g id="Frame">
<g id="Group">
<g id="Group_2">
<g id="Group_3">
<g id="Group_4">
<g id="Group_5">
<path id="Vector" fill-rule="evenodd" clip-rule="evenodd" d="M68.344 30.2381H56.493C56.097 30.2381 55.798 29.9361 55.798 29.5371V28.0781C55.79 27.7231 55.903 27.5621 56.121 27.2901L65.554 16.2351H56.31C55.916 16.2351 55.617 15.9321 55.616 15.5351V14.5021C55.617 14.1021 55.916 13.8031 56.31 13.8011H68.282C68.678 13.8031 68.977 14.1021 68.977 14.5021V15.9901C68.983 16.2581 68.892 16.4861 68.678 16.7271L59.221 27.8031H68.343C68.739 27.8041 69.037 28.1061 69.038 28.5041V29.5371C69.038 29.9361 68.738 30.2381 68.343 30.2381H68.344ZM91.705 30.5421H91.708C92.556 30.5251 93.183 30.3551 93.429 30.0781C93.516 29.9781 93.559 29.8651 93.547 29.7541C93.541 29.6611 93.541 29.6611 93.308 28.5611L93.303 28.5341C93.25 28.2471 93.049 28.1161 92.88 28.1161L92.858 28.1171C92.858 28.1171 92.644 28.1071 92.434 28.1071H92.431C91.826 28.0891 91.326 27.9991 91.315 27.1071V8.43612C91.315 8.12512 91.129 7.80812 90.771 7.79812L90.666 7.79912L89.011 8.22512C88.729 8.25512 88.436 8.45712 88.448 8.83212V27.1681C88.451 29.3411 89.608 30.5381 91.705 30.5431V30.5421ZM125.159 30.2381H123.68C123.285 30.2381 122.986 29.9361 122.984 29.5371V18.2981C122.959 16.3981 122.396 15.8681 120.364 15.8381C118.064 15.8381 115.74 16.4201 114.974 16.6311V29.5371C114.972 29.9431 114.694 30.2381 114.309 30.2381H112.801C112.406 30.2381 112.108 29.9361 112.107 29.5371V16.9321C112.085 15.7651 112.194 14.9581 113.84 14.4221C115.417 13.8721 118.433 13.4071 120.427 13.4061C124.223 13.4111 125.847 14.7931 125.851 18.0241V29.5371C125.851 29.9361 125.551 30.2381 125.158 30.2381H125.159ZM139.998 16.3001C139.448 16.1591 137.908 15.8101 136.174 15.8101C132.992 15.8391 131.656 16.7101 131.624 22.0351C131.66 27.8821 133.386 28.1981 136.204 28.2281V28.3521V28.2281C137.957 28.2281 139.462 27.8601 139.996 27.7121L139.998 16.3001ZM140.774 30.0191L140.599 30.0641C139.659 30.3041 138.372 30.6331 136.114 30.6331H136.111C129.894 30.6241 128.672 27.4611 128.666 22.0041C128.675 15.7441 130.643 13.4141 135.928 13.4061C137.794 13.4061 139.08 13.6491 140.002 13.8741L139.996 8.83312C139.989 8.61012 140.088 8.32112 140.606 8.22112L142.258 7.79712H142.348C142.729 7.80712 142.862 8.14712 142.863 8.43512V27.3821C142.888 28.5761 142.748 29.6021 140.774 30.0191ZM152.829 28.1991C148.756 28.1811 148.552 26.0731 148.523 22.0351C148.552 17.9761 148.755 15.8581 152.829 15.8391C156.905 15.8591 157.109 17.9761 157.137 22.0321C157.108 26.0721 156.905 28.1811 152.829 28.1981V28.1991ZM152.829 13.4061C146.112 13.4161 145.542 17.8631 145.536 22.0351C145.542 26.1891 146.112 30.6251 152.829 30.6331H152.831C159.542 30.6241 160.115 26.2031 160.125 22.0351C160.117 17.6741 159.548 13.4151 152.829 13.4051V13.4061ZM106.269 22.1221C105.595 22.1301 102.332 22.1821 101.03 22.4631L100.93 22.4861C99.47 22.8151 98.315 23.0731 98.302 25.2541C98.305 27.9961 100.387 28.2421 102.519 28.2601L102.521 28.3831V28.2601C103.857 28.2601 105.116 28.0681 106.268 27.6931V22.1221H106.269ZM109.15 18.1161V26.8331C109.18 29.0031 108.626 29.6931 106.462 30.2001C105.513 30.3981 104.061 30.6311 102.488 30.6331C100.168 30.6271 95.346 30.6181 95.344 25.3751C95.328 21.2461 97.79 20.5281 100.763 20.0681C102.712 19.7531 104.693 19.7061 105.7 19.7061C105.972 19.7061 106.15 19.7081 106.253 19.7111V18.2371C106.243 17.2531 106.239 16.6571 105.324 16.3091C104.764 16.0711 103.923 15.9601 102.676 15.9601C100.619 15.9601 98.776 16.4261 97.558 16.7341L97.092 16.8441C97.042 16.8571 96.988 16.8691 96.918 16.8741C96.702 16.8741 96.468 16.7441 96.381 16.4591L96.374 16.4331L96.098 15.0291V14.9581C96.102 14.6261 96.338 14.4321 96.56 14.3621C97.544 13.9921 100.142 13.4071 102.94 13.4061C104.986 13.4071 106.462 13.6751 107.456 14.2251C109.156 15.1311 109.153 16.7861 109.15 18.1151V18.1161ZM82.154 27.6931C81.002 28.0681 79.742 28.2601 78.406 28.2601V28.3831L78.405 28.2601C76.273 28.2421 74.191 27.9961 74.188 25.2541C74.202 23.0741 75.356 22.8141 76.817 22.4861L76.919 22.4631C78.218 22.1821 81.481 22.1301 82.154 22.1221V27.6931ZM83.341 14.2251C82.348 13.6751 80.872 13.4071 78.827 13.4051C76.029 13.4071 73.431 13.9921 72.448 14.3621C72.225 14.4321 71.988 14.6261 71.984 14.9581L71.985 15.0291L72.26 16.4331L72.267 16.4591C72.353 16.7451 72.59 16.8731 72.804 16.8731H72.805C72.874 16.8691 72.929 16.8571 72.979 16.8451L73.444 16.7351C74.664 16.4251 76.504 15.9601 78.562 15.9601C79.81 15.9601 80.649 16.0711 81.212 16.3101C82.125 16.6581 82.129 17.2531 82.141 18.2371V19.7111C82.034 19.7081 81.859 19.7061 81.588 19.7061C80.58 19.7061 78.598 19.7531 76.65 20.0681C73.676 20.5281 71.216 21.2461 71.23 25.3751C71.233 30.6181 76.056 30.6271 78.374 30.6331C79.948 30.6311 81.4 30.3981 82.348 30.2001C84.512 29.6931 85.064 29.0021 85.035 26.8331V18.1161C85.038 16.7861 85.043 15.1311 83.341 14.2251Z" fill="#222222"/>
<g id="Group_6">
<path id="Vector_2" fill-rule="evenodd" clip-rule="evenodd" d="M144.503 48.9712C144.473 47.8412 144.41 46.7452 144.131 45.6472C143.632 43.7022 142.481 43.1082 140.149 43.1082C137.756 43.1082 136.636 43.7362 136.138 45.6482C135.858 46.7142 135.827 47.8722 135.797 49.0022L144.503 48.9722V48.9712ZM147.457 49.1902V50.7262C147.457 50.9462 147.241 51.1962 147.022 51.1962H135.827C135.827 52.8582 136.168 53.7972 136.883 54.5812C137.756 55.5862 139.185 55.9312 141.238 55.9312C143.166 55.9312 144.41 55.5212 145.748 55.1452C145.811 55.1152 145.873 55.1152 145.935 55.1152C146.091 55.1152 146.183 55.2092 146.275 55.4282L146.618 56.7132C146.65 56.7452 146.65 56.8082 146.65 56.8392C146.65 57.0272 146.525 57.1542 146.308 57.2162C145.093 57.7162 143.042 58.1562 140.896 58.1562C134.801 58.1562 132.841 55.3972 132.841 49.5352C132.841 44.1112 134.055 40.8822 140.181 40.8822C143.415 40.8822 145.311 41.8552 146.368 43.5472C147.241 44.9902 147.457 46.9332 147.457 49.1902ZM126.898 55.3962C126.898 55.3962 125.156 55.9612 123.012 55.9612C119.995 55.9612 118.347 55.3332 118.347 49.5342C118.347 44.1422 119.747 43.1072 122.98 43.1072C125.065 43.1072 126.898 43.6082 126.898 43.6082V55.3962ZM129.761 58.8202V44.0802C129.761 42.9202 129.668 42.0122 127.739 41.5402C126.619 41.2572 124.97 40.8822 122.763 40.8822C117.165 40.8822 115.363 43.3592 115.363 49.5662C115.363 55.2092 116.668 58.1562 122.671 58.1562C124.91 58.1562 126.002 57.8652 126.998 57.6122L126.888 57.7622V60.1812C126.802 62.0912 125.921 63.5822 122.57 63.5822C120.09 63.5822 118.635 62.8802 117.939 61.2432C117.839 61.0992 117.666 61.0492 117.466 61.1312L115.972 61.7302C115.731 61.8272 115.668 62.0222 115.752 62.2402L115.746 62.2472C116.536 64.6082 118.579 65.8642 122.57 65.8642C128.76 65.8642 129.763 62.6412 129.763 59.3512V58.8212H129.761V58.8202ZM112.281 45.4602V57.2792C112.281 57.5592 112.124 57.7472 111.815 57.7472H109.888C109.577 57.7472 109.389 57.5592 109.389 57.2792V45.8032C109.389 43.7982 108.645 43.1082 106.624 43.1082C103.979 43.1082 101.273 43.8922 101.273 43.8922V57.2802C101.273 57.5602 101.118 57.7482 100.807 57.7482H98.8779C98.5679 57.7482 98.3799 57.5602 98.3799 57.2802V44.1432C98.3799 42.9192 98.5679 42.3872 100.185 41.8552C101.801 41.3222 104.785 40.8822 106.778 40.8822C110.51 40.8822 112.282 42.0122 112.282 45.4602H112.281ZM94.8079 40.8802H94.6849L92.6919 41.3522C92.4139 41.3822 92.2589 41.5082 92.2589 41.8222L92.2889 51.9482C92.2889 54.1412 91.9159 55.9612 88.2139 55.9612C85.1039 55.9612 84.1399 54.7362 84.1399 52.0112V41.3232C84.1399 41.1032 84.0489 40.8832 83.7999 40.8832H83.7059L81.6839 41.3232C81.4339 41.3852 81.2479 41.5102 81.2479 41.7932V51.7622C81.2479 55.9632 82.8329 58.1582 88.2139 58.1582C94.4039 58.1582 95.1489 55.0222 95.1489 51.7302V41.3222C95.1489 41.0712 95.0549 40.8822 94.8079 40.8822V40.8802ZM75.4379 49.5342C75.4379 45.5842 75.2519 43.1072 71.0229 43.1072C66.8239 43.1072 66.6379 45.5842 66.6379 49.5342C66.6379 53.4532 66.8239 55.9302 71.0229 55.9302C75.2519 55.9302 75.4379 53.4532 75.4379 49.5342ZM78.4249 49.5342C78.4249 54.2662 77.6469 58.1562 71.0229 58.1562C64.4299 58.1562 63.6219 54.2662 63.6219 49.5342C63.6219 44.7682 64.4299 40.8812 71.0219 40.8812C77.6469 40.8812 78.4249 44.7682 78.4249 49.5342ZM61.8659 55.6472C61.8359 55.6472 61.8039 55.6782 61.7439 55.6782C61.5559 55.7112 61.0889 55.8042 60.6539 55.8042C60.0319 55.8042 59.2849 55.6162 59.2849 54.4862V35.7202C59.2849 35.4702 59.1929 35.2832 58.9439 35.2832H58.8499L56.8289 35.7512C56.5489 35.7852 56.3939 35.9112 56.3939 36.1912V54.6132C56.3939 56.9652 57.6989 58.0622 59.7819 58.0622C61.0279 58.0622 61.8989 57.7802 62.1469 57.6552C62.2089 57.6552 62.3949 57.5602 62.3949 57.3102V57.2162L62.1149 55.9312C62.0849 55.7112 61.9899 55.6472 61.8659 55.6472Z" fill="#222222"/>
</g>
<path id="Vector_3" fill-rule="evenodd" clip-rule="evenodd" d="M47.324 19.0502L47.321 19.0512L47.129 18.8382C44.335 15.7492 38.539 12.0132 31.979 12.0132C29.924 12.0132 28.864 17.6502 28.956 22.8772L28.95 22.8762C29.06 27.4942 30.09 31.9202 32.135 31.9202C39.975 31.9202 48.905 24.5962 48.905 21.9712C48.905 21.3142 48.228 20.0472 47.325 19.0502" fill="#222222"/>
</g>
</g>
</g>
</g>
</g>
</g>
</symbol></svg>